# xmcd CD database file
#
# Track frame offsets:
#	150
#	10583
#	23079
#	35791
#	48098
#	60501
#	72557
#	84721
#	100151
#	112299
#	124118
#	138033
#	150230
#	162288
#	176837
#	187317
#	198036
#	213450
#	225616
#	236770
#	249872
#
# Disc length: 3528 seconds
#
# Revision: 0
# Processed by: cddbd v1.5PL3 Copyright (c) Steve Scherf et al.
# Submitted via: CDex 1.51
#
DISCID=1b0dc615
DTITLE=Art Tatum - The Incredible Tatum! 1933 - 1949
DYEAR=2003
DGENRE=Jazz
TTITLE0=Tiger Rag
TTITLE1=After You've Gone
TTITLE2=The Shout
TTITLE3=Liza
TTITLE4=Beautiful Love
TTITLE5=I Would Do Anything For You
TTITLE6=With Plenty of Money And You
TTITLE7=Chloe
TTITLE8=The Sheik Of Araby
TTITLE9=Tea For Two
TTITLE10=Humoresque
TTITLE11=Get Happy
TTITLE12=Begin The Beguine
TTITLE13=Stompin' At The Savoy
TTITLE14=I Got Rhythm
TTITLE15=Honeysuckle Rose
TTITLE16=Yesterdays
TTITLE17=I Know That You Know
TTITLE18=Tatum Pole Boogie
TTITLE19=Willow Weep For Me
TTITLE20=You Took Advantage Of Me
EXTD=YEAR: 2003
EXTT0=
EXTT1=
EXTT2=
EXTT3=
EXTT4=
EXTT5=
EXTT6=
EXTT7=
EXTT8=
EXTT9=
EXTT10=
EXTT11=
EXTT12=
EXTT13=
EXTT14=
EXTT15=
EXTT16=
EXTT17=
EXTT18=
EXTT19=
EXTT20=
PLAYORDER=
